<svg width="114" height="78" viewBox="0 0 114 78" fill="none" xmlns="http://www.w3.org/2000/svg">
<path d="M85.5 56C101.24 56 114 43.464 114 28C114 12.536 101.24 0 85.5 0C69.7599 0 57 12.536 57 28C57 43.464 69.7599 56 85.5 56Z" fill="#C81CF3"/>
<path fill-rule="evenodd" clip-rule="evenodd" d="M102.702 21.1172V30.4157H73.853L72.6118 30.4158C73.9255 36.0577 79.1391 40.2721 85.3707 40.2721C90.5225 40.2721 94.9786 37.3916 97.1105 33.2054L102.702 33.2053V41.0159C102.702 42.8647 101.152 44.3634 99.24 44.3634H71.5451C69.6332 44.3634 68.0833 42.8647 68.0833 41.0159V21.1172H102.702ZM93.7901 33.2054C91.9542 35.8008 88.8682 37.5041 85.3707 37.5041C81.8732 37.5041 78.7872 35.8008 76.9513 33.2054H93.7901ZM77.988 23.3489C75.2751 23.3489 73.0307 25.2887 72.6574 27.8121L75.6084 27.8122C75.9328 26.8409 76.8756 26.1384 77.988 26.1384C79.1005 26.1384 80.0432 26.8409 80.3677 27.8122L83.3186 27.8121C82.9453 25.2887 80.701 23.3489 77.988 23.3489ZM92.7971 23.3489C90.0842 23.3489 87.8398 25.2887 87.4665 27.8121L90.4174 27.8122C90.7419 26.8409 91.6847 26.1384 92.7971 26.1384C93.9096 26.1384 94.8523 26.8409 95.1768 27.8122L98.1277 27.8121C97.7544 25.2887 95.51 23.3489 92.7971 23.3489ZM99.24 10.8889C101.152 10.8889 102.702 12.3876 102.702 14.2364V18.3277H68.0833V14.2364C68.0833 12.3876 69.6332 10.8889 71.5451 10.8889H99.24Z" fill="white"/>
<path d="M28.5 78C44.2401 78 57 65.2401 57 49.5C57 33.7599 44.2401 21 28.5 21C12.7599 21 0 33.7599 0 49.5C0 65.2401 12.7599 78 28.5 78Z" fill="#C81CF3"/>
<path fill-rule="evenodd" clip-rule="evenodd" d="M45.7019 42.4942V51.9587H16.853L15.6118 51.9588C16.9255 57.7015 22.1391 61.9911 28.3707 61.9911C33.5225 61.9911 37.9786 59.0592 40.1105 54.7982L45.7019 54.7982V62.7483C45.7019 64.63 44.152 66.1555 42.24 66.1555H14.5451C12.6332 66.1555 11.0833 64.63 11.0833 62.7483V42.4942H45.7019ZM36.7901 54.7982C34.9542 57.44 31.8682 59.1737 28.3707 59.1737C24.8732 59.1737 21.7872 57.44 19.9513 54.7982H36.7901ZM20.988 44.7657C18.2751 44.7657 16.0307 46.7402 15.6574 49.3087L18.6084 49.3087C18.9328 48.3201 19.8756 47.605 20.988 47.605C22.1005 47.605 23.0432 48.3201 23.3677 49.3087L26.3186 49.3087C25.9453 46.7402 23.701 44.7657 20.988 44.7657ZM35.7971 44.7657C33.0842 44.7657 30.8398 46.7402 30.4665 49.3087L33.4174 49.3087C33.7419 48.3201 34.6847 47.605 35.7971 47.605C36.9096 47.605 37.8523 48.3201 38.1768 49.3087L41.1277 49.3087C40.7544 46.7402 38.51 44.7657 35.7971 44.7657ZM42.24 32.0833C44.152 32.0833 45.7019 33.6087 45.7019 35.4905V39.6549H11.0833V35.4905C11.0833 33.6087 12.6332 32.0833 14.5451 32.0833H42.24Z" fill="white"/>
</svg>
