<svg width="114" height="78" viewBox="0 0 114 78" fill="none" xmlns="http://www.w3.org/2000/svg">
<path d="M85.5 56C101.24 56 114 43.464 114 28C114 12.536 101.24 0 85.5 0C69.7599 0 57 12.536 57 28C57 43.464 69.7599 56 85.5 56Z" fill="#2F3678"/>
<path fill-rule="evenodd" clip-rule="evenodd" d="M102.702 21.117V30.4154H73.853L72.6118 30.4156C73.9255 36.0575 79.1391 40.2718 85.3707 40.2718C90.5225 40.2718 94.9786 37.3914 97.1105 33.2052L102.702 33.2051V41.0157C102.702 42.8644 101.152 44.3631 99.24 44.3631H71.5451C69.6332 44.3631 68.0833 42.8644 68.0833 41.0157V21.117H102.702ZM93.7901 33.2051C91.9542 35.8006 88.8682 37.5038 85.3707 37.5038C81.8732 37.5038 78.7872 35.8006 76.9513 33.2051H93.7901ZM77.988 23.3486C75.2751 23.3486 73.0307 25.2884 72.6574 27.8119L75.6084 27.8119C75.9328 26.8407 76.8756 26.1382 77.988 26.1382C79.1005 26.1382 80.0432 26.8407 80.3677 27.8119L83.3186 27.8119C82.9453 25.2884 80.701 23.3486 77.988 23.3486ZM92.7971 23.3486C90.0842 23.3486 87.8398 25.2884 87.4665 27.8119L90.4174 27.8119C90.7419 26.8407 91.6847 26.1382 92.7971 26.1382C93.9096 26.1382 94.8523 26.8407 95.1768 27.8119L98.1277 27.8119C97.7544 25.2884 95.51 23.3486 92.7971 23.3486ZM99.24 10.8887C101.152 10.8887 102.702 12.3874 102.702 14.2361V18.3274H68.0833V14.2361C68.0833 12.3874 69.6332 10.8887 71.5451 10.8887H99.24Z" fill="white"/>
<path d="M28.5 78C44.2401 78 57 65.2401 57 49.5C57 33.7599 44.2401 21 28.5 21C12.7599 21 0 33.7599 0 49.5C0 65.2401 12.7599 78 28.5 78Z" fill="#2F3678"/>
<path fill-rule="evenodd" clip-rule="evenodd" d="M45.7019 42.4945V51.959H16.853L15.6118 51.9591C16.9255 57.7018 22.1391 61.9913 28.3707 61.9913C33.5225 61.9913 37.9786 59.0595 40.1105 54.7985L45.7019 54.7984V62.7485C45.7019 64.6303 44.152 66.1557 42.24 66.1557H14.5451C12.6332 66.1557 11.0833 64.6303 11.0833 62.7485V42.4945H45.7019ZM36.7901 54.7985C34.9542 57.4403 31.8682 59.1739 28.3707 59.1739C24.8732 59.1739 21.7872 57.4403 19.9513 54.7985H36.7901ZM20.988 44.7659C18.2751 44.7659 16.0307 46.7404 15.6574 49.3089L18.6084 49.309C18.9328 48.3204 19.8756 47.6053 20.988 47.6053C22.1005 47.6053 23.0432 48.3204 23.3677 49.309L26.3186 49.3089C25.9453 46.7404 23.701 44.7659 20.988 44.7659ZM35.7971 44.7659C33.0842 44.7659 30.8398 46.7404 30.4665 49.3089L33.4174 49.309C33.7419 48.3204 34.6847 47.6053 35.7971 47.6053C36.9096 47.6053 37.8523 48.3204 38.1768 49.309L41.1277 49.3089C40.7544 46.7404 38.51 44.7659 35.7971 44.7659ZM42.24 32.0835C44.152 32.0835 45.7019 33.609 45.7019 35.4907V39.6551H11.0833V35.4907C11.0833 33.609 12.6332 32.0835 14.5451 32.0835H42.24Z" fill="white"/>
</svg>
